# xmcd CD database file
#
# Track frame offsets:
#	150
#	8358
#	15722
#	25737
#	40621
#	50351
#	62536
#	67340
#	78501
#	93764
#
# Disc length: 1368 seconds
#
# Revision: 1
# Processed by: cddbd v1.5.2PL0 Copyright (c) Steve Scherf et al.
# Submitted via: CDex 1.70beta2
#
DISCID=6b05560a
DTITLE=Bubby Holly - It's Only Rock 'N' Roll(1)
DYEAR=1999
DGENRE=Rock
TTITLE0=Maybe Baby
TTITLE1=Oh Boy
TTITLE2=That'll Be The Day
TTITLE3=Doin' Like Elvis
TTITLE4=Everyday
TTITLE5=I've Got To Be Me
TTITLE6=Keep A Kockin'
TTITLE7=Quando
TTITLE8=Welcome To The Country
TTITLE9=Well Alright
EXTD=YEAR: 1999
EXTT0=
EXTT1=
EXTT2=
EXTT3=
EXTT4=
EXTT5=
EXTT6=
EXTT7=
EXTT8=
EXTT9=
PLAYORDER=
